# xmcd
#
# Track frame offsets: 
#        150
#        11377
#        30787
#        45449
#        54508
#        70426
#        80743
#        94954
#        115363
#        132665
#        149326
#
# Disc length: 2172 seconds
#
# Revision: 0
# Processed by: cddbd v1.5.2PL0 Copyright (c) Steve Scherf et al.
# Submitted via: ExactAudioCopy v0.99pb3
#
DISCID=95087a0b
DTITLE=Graig Markel - Via Novella
DYEAR=2007
DGENRE=Rock
TTITLE0=Black Mesa
TTITLE1=Knives Drawn
TTITLE2=Reverse
TTITLE3=Cascadia
TTITLE4=Sixes and Sevens
TTITLE5=Silhouettes
TTITLE6=Turpentine
TTITLE7=The Disconnection
TTITLE8=Shine Through
TTITLE9=Figures In The Snow
TTITLE10=Silverlining
EXTD=
EXTT0=
EXTT1=
EXTT2=
EXTT3=
EXTT4=
EXTT5=
EXTT6=
EXTT7=
EXTT8=
EXTT9=
EXTT10=
PLAYORDER=
